<?xml version="1.0" standalone="no"?>
<!DOCTYPE svg PUBLIC "-//W3C//DTD SVG 20010904//EN"
 "http://www.w3.org/TR/2001/REC-SVG-20010904/DTD/svg10.dtd">
<svg version="1.0" xmlns="http://www.w3.org/2000/svg"
 width="1024.000000pt" height="1024.000000pt" viewBox="0 0 1024.000000 1024.000000"
 preserveAspectRatio="xMidYMid meet">

<g transform="translate(0.000000,1024.000000) scale(0.100000,-0.100000)"
fill="#000000" stroke="none">
<path d="M6135 9128 c-2 -7 -5 -24 -7 -38 -3 -24 -6 -25 -69 -25 -69 0 -99
-14 -99 -44 0 -22 19 -41 42 -41 17 0 18 -13 18 -174 0 -173 0 -175 -22 -178
-28 -4 -50 -45 -38 -68 8 -15 32 -17 212 -16 l203 1 3 23 c4 26 -13 51 -43 62
-19 7 -20 15 -20 175 0 160 1 168 20 171 21 3 45 30 45 50 0 26 -31 36 -104
35 l-75 -1 -3 37 c-3 33 -7 38 -31 41 -16 2 -29 -2 -32 -10z m105 -188 c0 -18
-7 -20 -64 -20 -73 0 -96 6 -96 26 0 11 18 14 80 14 73 0 80 -2 80 -20z m-32
-49 c21 -1 32 -6 32 -16 0 -12 -16 -15 -80 -15 -70 0 -80 2 -80 18 0 14 8 17
48 16 26 -1 62 -2 80 -3z m32 -91 c0 -18 -7 -20 -80 -20 -73 0 -80 2 -80 20 0
18 7 20 80 20 73 0 80 -2 80 -20z m10 -70 c0 -18 -7 -20 -85 -20 -78 0 -85 2
-85 20 0 18 7 20 85 20 78 0 85 -2 85 -20z m-2 -72 c-3 -21 -9 -23 -85 -26
-83 -3 -83 -3 -83 23 0 25 1 25 86 25 83 0 85 -1 82 -22z"/>
<path d="M3504 8890 c-29 -12 -37 -26 -30 -56 5 -20 12 -24 46 -24 l40 0 0
-45 0 -45 -85 0 c-83 0 -86 -1 -95 -26 -11 -28 -12 -1438 -1 -1534 l6 -55 58
-3 57 -3 0 -80 c0 -72 2 -81 20 -86 18 -5 20 -14 20 -99 0 -110 0 -108 -23
-109 -10 -1 -25 -9 -33 -17 -13 -12 -14 -20 -5 -37 7 -11 17 -22 24 -22 7 -1
19 -2 27 -3 12 -1 14 -12 12 -51 -2 -40 1 -55 17 -69 15 -14 23 -15 40 -6 20
10 21 19 21 141 l0 131 90 -4 c79 -3 91 -1 96 15 3 9 2 26 -1 37 -6 18 -15 20
-96 20 l-89 0 0 35 c0 19 5 35 10 35 6 0 10 35 10 85 0 69 3 85 15 85 12 0 15
-14 15 -66 0 -73 12 -104 39 -104 25 0 31 19 31 101 l0 69 46 0 c70 0 96 35
184 236 140 324 177 378 290 411 61 18 179 19 790 7 354 -7 448 -17 532 -59
64 -32 81 -47 120 -102 81 -118 91 -287 38 -618 -20 -123 -75 -375 -105 -477
l-16 -58 -232 0 -232 0 110 -111 c61 -61 167 -164 236 -229 l126 -119 70 29
c39 16 102 35 141 42 134 23 284 -20 396 -113 l48 -39 350 0 350 0 29 29 29
29 0 188 c0 167 -2 190 -19 218 -30 48 -74 69 -158 74 l-73 5 -10 36 c-6 20
-23 99 -39 176 -76 368 -94 734 -46 943 l17 72 41 0 42 0 21 -108 c44 -229
148 -350 281 -329 113 19 196 174 243 452 20 115 22 154 17 335 -6 235 -29
363 -90 492 -93 197 -254 220 -361 50 -37 -60 -81 -174 -102 -269 l-19 -83
-50 0 -50 0 -27 59 c-35 74 -108 151 -177 186 -166 83 -465 74 -1011 -30 -212
-41 -618 -100 -792 -116 -70 -6 -198 -9 -285 -7 -201 6 -248 22 -338 112 -59
60 -209 245 -203 251 9 9 164 -30 295 -74 188 -63 292 -76 528 -67 275 11 502
48 765 127 222 67 520 186 520 208 0 21 -20 20 -86 -7 -163 -67 -497 -168
-714 -216 -243 -53 -320 -61 -575 -61 -268 0 -280 2 -468 72 -160 59 -191 65
-342 72 l-130 6 -3 34 c-4 39 9 51 55 51 54 0 67 65 17 84 -23 9 -186 6 -210
-4z m7 -550 c12 -196 6 -1011 -9 -1105 l-8 -50 -7 55 c-10 80 -7 1362 4 1320
4 -19 13 -118 20 -220z m3578 203 c104 -126 157 -495 116 -806 -23 -179 -78
-330 -140 -387 l-27 -25 30 60 c60 122 92 283 99 505 8 260 -30 514 -96 636
-34 63 -26 70 18 17z m-844 -210 c22 -7 -29 -11 -180 -16 -115 -3 -298 -15
-405 -26 -194 -20 -431 -31 -424 -20 2 3 36 9 76 13 40 4 156 18 258 31 102
13 203 26 225 29 69 7 418 -2 450 -11z m694 -118 c17 -8 39 -34 52 -62 22 -44
24 -61 23 -188 0 -158 -18 -227 -74 -280 -30 -29 -42 -25 -15 5 28 30 46 131
47 255 1 131 -16 211 -53 258 -23 31 -20 33 20 12z m-578 -301 c32 -16 87 -77
100 -111 14 -38 11 -111 -8 -150 -46 -97 -205 -124 -290 -50 -86 76 -83 198 8
284 54 50 124 60 190 27z m-2526 -228 c40 -17 64 -50 76 -106 29 -130 -119
-245 -221 -171 -95 69 -81 218 25 271 47 24 74 25 120 6z m2082 -544 c-7 -159
-32 -325 -71 -465 -37 -134 -47 -134 -21 0 18 94 71 451 80 546 12 116 18 73
12 -81z m908 -822 c23 -1 26 -3 15 -10 -9 -5 -250 -11 -535 -14 -288 -3 -507
-1 -490 3 21 6 -1 9 -77 10 -74 1 -108 5 -108 13 0 10 338 9 1195 -2z"/>
<path d="M6260 7863 c-23 -9 -60 -45 -76 -75 -28 -53 -10 -129 38 -162 32 -23
106 -20 146 4 32 20 62 71 62 107 0 32 -40 98 -69 116 -28 17 -71 21 -101 10z"/>
<path d="M3710 7602 c-63 -64 -24 -162 65 -162 16 0 38 12 56 29 56 57 27 145
-53 158 -32 5 -41 1 -68 -25z"/>
<path d="M5460 7308 c-66 -45 -157 -131 -248 -233 -44 -49 -136 -153 -206
-230 l-126 -140 57 -57 c32 -32 60 -54 63 -50 4 4 113 127 243 274 130 147
255 291 277 320 88 116 49 192 -60 116z m1 -111 c-30 -48 -171 -182 -171 -162
0 13 120 154 152 179 41 31 46 26 19 -17z"/>
<path d="M4260 7186 c0 -31 165 -262 420 -586 50 -63 115 -151 144 -195 53
-79 54 -80 97 -81 85 -2 144 -45 469 -343 69 -62 126 -117 128 -120 6 -16
-253 -102 -419 -139 -110 -25 -124 -30 -127 -50 -4 -29 22 -29 158 2 126 29
203 55 332 112 l97 42 78 -66 c43 -37 175 -156 292 -266 236 -218 285 -256
304 -237 9 9 8 17 -4 36 -8 14 -134 150 -280 303 -146 152 -268 281 -270 287
-2 5 28 20 66 34 103 37 227 36 310 -2 113 -52 168 -129 169 -233 0 -47 -6
-71 -27 -109 -31 -54 -29 -65 7 -42 40 26 68 99 68 173 -1 115 -61 200 -182
258 -61 29 -72 31 -175 31 -105 0 -114 -2 -197 -38 l-88 -39 -27 22 c-16 11
-275 267 -578 568 -589 587 -765 742 -765 678z m670 -685 c0 -4 -10 -20 -23
-35 -18 -20 -25 -24 -35 -14 -9 9 -6 18 15 40 24 25 43 29 43 9z"/>
<path d="M4625 6428 c-38 -45 -114 -127 -168 -183 l-97 -103 -93 -4 c-81 -3
-99 -8 -156 -38 -118 -63 -254 -223 -288 -339 -56 -192 32 -333 201 -319 125
10 261 126 364 308 44 77 62 133 72 222 5 42 16 90 24 106 8 16 81 92 161 169
l145 140 -40 61 c-22 34 -43 62 -47 61 -5 0 -39 -37 -78 -81z m-290 -413 c21
-20 25 -34 25 -82 0 -71 -21 -118 -93 -216 -85 -115 -196 -182 -270 -163 -52
13 -80 48 -84 107 -9 100 55 218 164 304 67 52 119 73 186 74 38 1 53 -4 72
-24z"/>
<path d="M3145 6431 c-66 -8 -113 -37 -139 -86 -19 -36 -21 -57 -21 -205 0
-146 2 -168 19 -193 11 -16 30 -33 43 -38 14 -5 191 -9 395 -9 l371 0 107 104
c142 137 243 185 388 186 l47 1 105 115 c58 64 107 120 108 125 4 10 -1340 10
-1423 0z m730 -120 c28 -6 -21 -10 -160 -12 -337 -7 -596 -2 -608 10 -13 13
704 15 768 2z"/>
<path d="M4744 6261 c-77 -81 -92 -107 -147 -244 -22 -55 -60 -122 -100 -175
-147 -199 -196 -288 -204 -368 -7 -69 16 -132 64 -175 93 -81 192 -78 310 11
100 77 163 207 163 339 0 82 -24 136 -86 204 -39 41 -45 53 -41 77 7 33 93
225 130 289 l26 45 -20 38 c-11 21 -20 37 -22 37 -1 -1 -34 -36 -73 -78z m-41
-505 c53 -49 58 -146 12 -241 -77 -159 -212 -220 -282 -128 -69 91 -7 265 131
365 50 36 103 38 139 4z"/>
<path d="M5197 5104 c-12 -13 -8 -84 8 -113 20 -39 77 -63 160 -69 135 -8 231
28 270 101 19 37 19 39 2 52 -22 16 -97 9 -113 -12 -25 -30 -136 -44 -166 -20
-9 6 -18 23 -20 37 -3 23 -7 25 -68 28 -36 2 -69 0 -73 -4z"/>
<path d="M4474 5016 c-3 -8 -4 -31 -2 -52 l3 -39 220 0 220 0 0 50 0 50 -218
3 c-180 2 -218 0 -223 -12z"/>
<path d="M4611 4836 c-105 -35 -158 -143 -117 -240 20 -47 62 -73 157 -97 121
-30 139 -42 139 -90 0 -47 -32 -64 -119 -63 -43 1 -95 9 -120 18 -24 9 -46 14
-49 11 -13 -12 -29 -101 -21 -111 18 -22 105 -39 199 -38 137 0 209 35 252
118 25 50 21 134 -9 174 -26 35 -85 68 -148 83 -107 24 -125 30 -135 49 -16
30 4 67 43 78 39 11 116 1 170 -22 34 -14 38 -14 46 2 5 9 12 38 16 64 l7 46
-38 12 c-65 19 -223 22 -273 6z"/>
<path d="M6035 4831 c-40 -18 -82 -58 -103 -96 -10 -18 -11 -16 -12 17 0 20
-4 48 -10 62 -9 25 -12 26 -100 26 l-90 0 0 -60 c0 -57 1 -60 25 -60 14 0 26
-1 26 -2 1 -2 4 -111 8 -243 l6 -240 59 -3 c34 -2 64 2 70 8 7 7 13 84 16 206
l5 196 32 28 c35 32 103 54 133 45 48 -15 50 -23 50 -249 0 -151 3 -215 12
-224 17 -17 113 -15 127 2 9 10 11 82 9 258 l-3 245 -29 37 c-16 21 -44 44
-62 52 -46 19 -121 17 -169 -5z"/>
<path d="M3827 4833 c-4 -3 -7 -28 -7 -55 0 -43 3 -50 25 -58 l25 -10 0 -156
c0 -176 9 -221 55 -269 39 -42 97 -59 201 -59 135 0 209 43 234 134 6 23 9
127 8 257 l-3 218 -67 3 -68 3 0 -206 c0 -237 -6 -266 -63 -284 -44 -15 -111
-4 -134 21 -16 18 -18 44 -20 232 -2 116 -5 217 -8 224 -5 13 -166 18 -178 5z"/>
<path d="M5029 4825 c0 -8 -1 -31 -1 -50 0 -19 1 -39 1 -44 1 -5 13 -11 29
-13 l27 -3 5 -181 c5 -175 6 -182 32 -221 43 -65 101 -88 223 -88 117 1 177
23 223 83 23 30 27 48 32 121 4 76 7 86 25 89 32 6 45 22 45 57 0 51 -9 65
-41 65 l-29 0 0 100 0 101 -67 -3 -68 -3 -5 -110 c-4 -91 -8 -110 -21 -113
-10 -2 -19 5 -22 18 -4 17 -13 20 -56 20 l-51 0 0 -60 c0 -56 2 -61 26 -70 14
-6 50 -10 81 -10 46 0 54 -3 49 -16 -3 -9 -6 -31 -6 -51 0 -25 -8 -43 -30 -65
-29 -29 -34 -30 -95 -26 -102 6 -99 0 -105 261 l-5 222 -97 3 c-82 2 -98 0
-99 -13z"/>
<path d="M4130 4011 c-5 -11 -10 -34 -10 -52 0 -31 1 -31 35 -26 33 5 35 4 35
-21 0 -38 11 -51 51 -62 52 -15 225 -13 257 4 41 21 64 51 65 88 l2 33 -57 3
c-49 3 -58 0 -68 -18 -9 -16 -21 -20 -65 -20 -51 0 -55 2 -55 23 0 12 -7 33
-16 45 -13 19 -24 22 -89 22 -63 0 -76 -3 -85 -19z"/>
<path d="M9399 3950 c-3 -50 -2 -50 -87 -55 -69 -4 -109 -16 -124 -39 -14 -20
-9 -186 5 -187 29 -2 142 3 145 6 2 2 5 28 5 57 l2 53 73 5 c66 4 76 8 98 34
21 24 24 37 22 85 l-3 56 -67 3 c-62 3 -68 1 -69 -18z"/>
<path d="M7200 3811 c0 -62 30 -102 98 -128 57 -22 185 -24 253 -4 83 24 157
103 128 137 -19 23 -95 17 -130 -8 -25 -19 -44 -23 -99 -23 -74 0 -87 7 -93
45 -4 24 -8 25 -80 28 l-77 3 0 -50z"/>
<path d="M3991 3781 c-21 -21 -38 -98 -24 -112 5 -5 112 -8 249 -7 l239 3 0
65 0 65 -222 3 c-208 2 -224 1 -242 -17z"/>
<path d="M2520 3576 c-68 -16 -106 -31 -115 -46 -10 -16 15 -111 31 -117 7 -3
33 3 58 12 32 12 66 16 120 13 63 -3 79 -7 102 -28 41 -39 54 -80 54 -177 0
-99 -16 -142 -63 -177 -41 -30 -146 -29 -204 2 -23 12 -48 22 -56 22 -12 0
-47 -97 -47 -129 0 -5 24 -19 53 -32 43 -20 69 -23 157 -24 95 0 110 3 162 28
64 32 111 80 142 146 18 39 21 65 21 171 0 117 -2 129 -28 182 -33 68 -100
130 -157 147 -63 19 -169 22 -230 7z"/>
<path d="M5395 3576 c-69 -16 -132 -44 -139 -62 -6 -17 19 -109 30 -107 5 1
27 9 49 17 50 19 125 20 149 3 27 -20 32 -66 35 -296 1 -118 4 -217 6 -221 5
-8 123 -10 143 -3 16 7 18 527 1 570 -34 90 -141 129 -274 99z"/>
<path d="M7241 3579 c-73 -11 -152 -42 -176 -69 -9 -10 -19 -37 -22 -59 -7
-49 12 -83 64 -114 l36 -20 -34 -28 c-34 -27 -34 -28 -39 -131 l-5 -103 -27
-3 c-17 -2 -30 -11 -34 -24 -8 -27 5 -111 19 -120 17 -11 116 -10 158 2 51 14
59 39 59 194 l0 132 35 34 c46 44 45 65 -5 90 -90 46 -60 95 57 95 55 0 66 -3
90 -28 l28 -27 5 -243 5 -242 77 -3 c75 -3 78 -2 84 22 3 13 4 127 2 252 -3
208 -5 233 -24 274 -12 25 -32 55 -45 67 -53 49 -184 71 -308 52z"/>
<path d="M7945 3579 c-133 -20 -209 -62 -217 -121 -8 -51 10 -87 59 -118 l44
-28 -36 -22 c-19 -12 -38 -33 -41 -46 -3 -13 -5 -75 -3 -137 4 -126 15 -154
71 -183 40 -21 135 -29 171 -15 26 10 27 14 27 76 l0 65 -34 0 c-64 0 -66 3
-66 98 l0 86 41 42 c41 41 41 42 22 60 -11 11 -34 27 -51 36 -41 22 -41 43 1
64 41 22 116 21 151 -1 49 -32 56 -61 56 -222 0 -81 5 -165 11 -186 14 -52 69
-111 117 -125 83 -25 142 -10 220 58 l47 40 7 -42 c4 -23 13 -45 20 -49 15 -9
160 -5 177 5 6 4 11 33 11 67 0 54 -2 60 -25 69 l-25 10 0 248 c0 180 -3 251
-12 260 -12 12 -114 17 -142 6 -14 -5 -16 -34 -16 -221 0 -240 -5 -264 -65
-289 -48 -20 -108 -18 -135 4 -22 18 -23 26 -25 183 -2 185 -14 231 -74 282
-52 43 -173 63 -286 46z"/>
<path d="M825 3570 c-29 -5 -30 -7 -30 -60 0 -49 2 -55 25 -60 l25 -6 5 -264
5 -265 65 -6 c103 -10 98 -21 102 220 3 229 5 235 70 284 35 26 116 34 143 14
19 -15 20 -29 23 -259 2 -135 7 -247 12 -252 14 -14 142 -9 152 6 4 7 8 117 8
244 0 262 -8 309 -62 361 -42 40 -76 53 -140 53 -67 0 -127 -29 -178 -87 l-40
-46 0 49 c0 27 -4 55 -9 63 -9 14 -119 21 -176 11z"/>
<path d="M2070 3566 c-6 -6 -10 -119 -10 -293 0 -308 3 -328 54 -351 27 -12
172 -19 183 -8 4 3 7 34 7 69 l1 62 -35 5 -35 5 -3 250 c-1 151 -6 253 -12
259 -14 14 -137 15 -150 2z"/>
<path d="M3041 3566 c-7 -8 -11 -36 -9 -62 3 -42 6 -49 28 -54 l25 -6 5 -209
c6 -231 12 -260 69 -307 51 -44 152 -49 224 -11 16 8 48 32 72 54 41 38 43 39
49 17 3 -13 6 -35 6 -50 0 -14 6 -28 13 -31 13 -5 154 2 175 8 8 3 12 25 12
65 0 55 -2 61 -25 70 l-25 10 0 248 c0 180 -3 251 -12 260 -7 7 -39 12 -73 12
-34 0 -66 -5 -73 -12 -9 -9 -12 -71 -12 -218 0 -220 -4 -237 -52 -273 -37 -27
-120 -35 -153 -13 l-25 16 0 235 c0 199 -2 236 -16 249 -21 22 -186 23 -203 2z"/>
<path d="M3935 3561 c-74 -46 -112 -122 -125 -249 -17 -165 15 -278 101 -356
59 -53 117 -71 197 -62 75 9 86 20 77 85 l-7 51 -58 0 c-74 0 -104 22 -125 92
-18 61 -19 208 -2 257 17 48 43 62 66 35 38 -47 56 -48 127 -10 l65 36 9 -26
c6 -14 10 -130 10 -258 0 -167 3 -235 12 -244 14 -14 126 -16 146 -3 11 6 13
64 10 282 -3 269 -3 275 -27 313 -33 53 -75 76 -137 76 -41 0 -55 -5 -73 -24
-13 -14 -36 -30 -53 -37 -27 -11 -31 -10 -67 25 -30 29 -44 36 -76 36 -22 0
-53 -8 -70 -19z"/>
<path d="M5027 3573 c-4 -3 -7 -94 -7 -202 0 -108 -5 -213 -10 -233 -15 -52
-59 -81 -131 -86 -48 -4 -60 -1 -78 17 -20 20 -21 30 -21 250 0 183 -3 231
-14 240 -9 8 -48 11 -112 9 l-99 -3 -3 -48 c-3 -52 9 -77 38 -77 17 0 18 -16
22 -202 3 -189 5 -206 26 -250 34 -68 72 -92 153 -96 79 -5 112 9 181 76 l47
45 7 -51 c4 -33 12 -52 21 -54 9 -2 52 -1 97 2 l81 5 3 63 c3 59 2 63 -23 72
l-25 10 0 248 c0 180 -3 251 -12 260 -13 13 -130 17 -141 5z"/>
<path d="M5812 3569 c-21 -8 -23 -14 -20 -61 3 -46 6 -53 28 -58 l25 -6 5
-219 c6 -253 11 -272 90 -313 37 -19 56 -23 105 -19 70 5 104 21 162 75 l41
40 7 -48 7 -48 62 -4 c34 -2 77 -1 96 2 l35 5 3 63 c3 59 2 63 -23 72 l-25 10
0 240 c0 147 -4 249 -10 261 -9 16 -22 19 -73 19 -36 0 -68 -5 -75 -12 -9 -9
-12 -71 -12 -215 0 -226 -5 -248 -63 -283 -58 -36 -155 -21 -158 23 0 7 -1
112 -2 235 -2 263 2 252 -111 251 -39 0 -81 -4 -94 -10z"/>
<path d="M6560 3558 l-65 -23 2 -54 c3 -70 12 -78 63 -57 49 19 119 21 144 3
27 -20 34 -78 34 -302 0 -112 3 -209 7 -214 8 -14 110 -14 136 -1 18 10 19 24
19 276 0 244 -2 268 -20 304 -33 65 -71 85 -170 88 -67 2 -99 -2 -150 -20z"/>
<path d="M8848 3572 c-15 -3 -18 -14 -18 -62 0 -57 1 -59 28 -62 l27 -3 5
-265 5 -265 80 0 80 0 5 210 c3 143 9 217 18 232 39 69 157 107 197 63 19 -21
20 -37 22 -262 1 -132 4 -242 6 -245 8 -7 143 -6 156 1 14 9 15 463 0 526 -12
53 -49 104 -89 125 -18 9 -56 15 -98 15 -85 0 -142 -27 -189 -89 l-33 -43 0
49 c0 72 -6 76 -102 78 -45 1 -91 -1 -100 -3z"/>
<path d="M1560 3482 c-5 -2 -10 -32 -10 -67 0 -117 58 -150 255 -143 l100 3 0
65 0 65 -85 3 c-92 3 -107 10 -112 50 -3 26 -5 27 -70 27 -38 0 -72 -1 -78 -3z"/>
<path d="M1557 3174 c-4 -4 -7 -40 -7 -80 0 -61 4 -77 23 -99 29 -33 104 -47
234 -43 l98 3 0 65 0 65 -85 3 c-46 2 -90 8 -96 13 -7 6 -14 25 -16 42 l-3 32
-70 3 c-39 1 -74 0 -78 -4z"/>
<path d="M6837 2573 c-4 -3 -7 -21 -7 -40 0 -30 3 -33 29 -33 23 0 31 -6 40
-30 10 -29 12 -30 70 -30 33 0 63 -4 66 -10 3 -5 26 -10 50 -10 49 0 65 16 65
69 0 40 -24 61 -70 61 -30 0 -40 -5 -45 -20 -8 -26 -35 -26 -35 -1 0 36 -27
51 -94 51 -34 0 -66 -3 -69 -7z"/>
<path d="M5503 2444 c-23 -23 -25 -32 -21 -80 6 -73 22 -87 102 -92 63 -4 65
-4 72 22 10 41 -1 56 -41 56 -34 0 -57 21 -40 38 3 4 55 9 113 12 l107 5 3 33
3 32 -136 0 c-133 0 -137 -1 -162 -26z"/>
<path d="M2710 2441 c-16 -30 -12 -51 9 -51 31 0 33 -15 6 -38 -29 -25 -31
-35 -9 -56 11 -11 34 -16 77 -16 124 0 177 23 177 76 0 25 -2 26 -37 20 -119
-21 -114 -21 -107 12 5 22 1 35 -15 51 -28 28 -86 29 -101 2z"/>
<path d="M4210 2381 c0 -59 23 -80 101 -92 36 -5 97 -9 135 -7 l69 3 0 40 0
40 -75 2 c-41 1 -83 2 -92 2 -10 1 -20 12 -24 26 -6 23 -11 25 -60 25 l-54 0
0 -39z"/>
<path d="M6918 2389 c-9 -27 -13 -29 -63 -29 -56 0 -65 -8 -65 -56 l0 -24 163
2 162 3 3 58 3 57 -41 0 c-33 0 -40 -3 -40 -20 0 -13 -7 -20 -20 -20 -15 0
-20 7 -20 25 0 14 -3 26 -7 26 -60 9 -64 8 -75 -22z"/>
<path d="M5690 2361 c-8 -21 -9 -39 -3 -58 8 -25 15 -28 56 -31 43 -3 48 -1
57 23 21 55 -8 95 -68 95 -23 0 -32 -6 -42 -29z"/>
<path d="M7051 2216 c-9 -11 -29 -13 -84 -9 -76 6 -146 -8 -171 -32 -11 -11
-12 -23 -6 -46 13 -43 14 -44 60 -25 55 22 142 21 169 -1 12 -10 23 -31 24
-48 l2 -30 -91 -6 c-133 -10 -176 -38 -189 -124 -10 -62 10 -122 48 -145 35
-22 100 -26 142 -10 23 9 26 15 23 47 -3 35 -5 38 -34 38 -39 1 -64 20 -64 51
0 40 25 54 95 54 l64 0 3 -92 3 -93 52 -3 c49 -3 53 -1 59 22 3 14 5 95 3 179
-3 125 -7 158 -22 180 -16 25 -16 27 3 37 13 7 20 21 20 40 0 29 -1 30 -49 30
-30 0 -53 -5 -60 -14z"/>
<path d="M2700 2193 c-78 -40 -105 -141 -55 -201 19 -23 44 -35 107 -52 94
-25 108 -33 108 -65 0 -50 -75 -68 -164 -40 -31 10 -59 15 -63 11 -3 -3 -7
-25 -7 -48 -1 -41 0 -42 44 -56 66 -20 187 -11 232 16 42 26 68 75 68 129 0
77 -37 113 -144 140 -74 19 -99 41 -80 71 15 23 84 27 140 8 49 -16 51 -15 60
41 8 50 1 54 -121 60 -74 4 -96 1 -125 -14z"/>
<path d="M3083 2190 c-45 -20 -50 -31 -33 -74 8 -23 12 -25 35 -16 42 16 111
12 126 -7 10 -11 15 -62 19 -182 l5 -166 53 -3 52 -3 0 186 c0 207 -6 230 -63
265 -43 27 -137 26 -194 0z"/>
<path d="M3770 2202 c-6 -2 -10 -59 -10 -143 0 -172 -10 -202 -69 -220 -31 -9
-47 -9 -66 -1 l-25 11 -2 173 -3 173 -75 0 -75 0 -3 -33 c-3 -26 1 -35 16 -39
18 -4 20 -16 24 -146 4 -158 17 -200 67 -230 55 -32 140 -18 185 32 25 28 34
26 38 -6 3 -27 5 -28 68 -28 l65 0 3 46 c3 40 0 47 -17 52 -20 5 -21 14 -23
183 l-3 179 -42 0 c-24 0 -47 -1 -53 -3z"/>
<path d="M4084 2191 c-52 -32 -77 -98 -78 -205 -1 -84 2 -98 29 -151 36 -71
86 -105 153 -105 63 0 79 11 74 54 -4 34 -6 36 -41 36 -66 0 -101 59 -101 173
0 32 7 74 15 94 l15 36 29 -27 c30 -29 44 -28 94 7 46 32 51 16 57 -181 l5
-177 52 -3 c49 -3 53 -1 59 22 3 14 4 99 2 188 -3 129 -7 170 -21 195 -34 64
-97 81 -159 43 -42 -25 -60 -25 -83 0 -23 25 -61 25 -101 1z"/>
<path d="M4696 2200 c-66 -21 -119 -98 -135 -197 -23 -144 39 -251 155 -269
53 -8 109 6 109 26 2 48 -10 62 -53 64 -63 3 -85 30 -90 111 -9 132 15 175 98
175 37 0 55 -5 70 -20 23 -23 21 -7 29 -195 l6 -150 53 -3 53 -3 -3 185 c-3
168 -5 187 -24 212 -42 56 -69 69 -157 71 -45 1 -95 -2 -111 -7z"/>
<path d="M5182 2202 l-43 -3 3 -211 c3 -208 3 -210 27 -229 19 -15 37 -19 75
-17 l51 3 3 47 c3 42 1 47 -20 50 -23 3 -23 4 -26 180 -2 128 -6 177 -15 180
-6 1 -31 2 -55 0z"/>
<path d="M5550 2202 c-36 -1 -74 -4 -86 -7 -28 -6 -44 -45 -44 -106 0 -42 5
-55 28 -78 l27 -27 -32 -32 c-28 -27 -33 -40 -33 -78 0 -102 49 -139 185 -139
76 0 98 4 140 25 79 40 86 61 92 256 3 91 3 170 0 177 -3 9 -22 11 -63 7 l-59
-5 -2 -160 c-3 -158 -3 -160 -28 -182 -47 -42 -155 -23 -155 27 0 38 11 50 49
50 53 0 63 10 59 61 l-3 44 -45 5 c-39 4 -45 8 -48 31 -4 32 13 46 58 51 32 3
35 6 38 37 2 18 0 36 -5 40 -4 3 -37 5 -73 3z"/>
<path d="M6520 2202 c-6 -2 -10 -78 -10 -206 0 -192 1 -205 21 -230 19 -24 27
-27 78 -24 l56 3 3 47 c3 42 1 47 -20 50 -23 3 -23 4 -26 180 l-2 176 -45 4
c-25 2 -49 2 -55 0z"/>
<path d="M7325 2191 c-46 -17 -50 -21 -47 -47 5 -46 18 -55 57 -38 19 8 61 14
94 14 54 0 62 -3 85 -30 49 -59 47 -191 -4 -242 -51 -51 -134 -28 -128 35 3
28 8 33 36 37 18 3 33 8 32 13 0 4 0 23 0 42 l0 35 -64 0 c-53 0 -70 -4 -91
-22 -48 -43 -46 -144 5 -202 66 -74 246 -74 312 0 46 52 66 196 39 292 -15 53
-65 104 -118 120 -57 17 -149 14 -208 -7z"/>
<path d="M5930 2161 c0 -30 4 -40 19 -44 17 -4 19 -16 20 -141 1 -75 6 -147
10 -159 24 -61 99 -92 206 -85 83 6 129 28 160 80 18 29 20 54 23 211 l4 177
-61 0 -61 0 0 -154 c0 -85 -4 -166 -9 -179 -11 -29 -60 -49 -102 -40 -53 10
-59 32 -59 194 0 81 -3 154 -6 163 -5 12 -21 16 -75 16 l-69 0 0 -39z"/>
</g>
</svg>
