<?xml version="1.0" standalone="no"?>
<!DOCTYPE svg PUBLIC "-//W3C//DTD SVG 20010904//EN"
 "http://www.w3.org/TR/2001/REC-SVG-20010904/DTD/svg10.dtd">
<svg version="1.0" xmlns="http://www.w3.org/2000/svg"
 width="1015.000000pt" height="1015.000000pt" viewBox="0 0 1015.000000 1015.000000"
 preserveAspectRatio="xMidYMid meet">

<g transform="translate(0.000000,1015.000000) scale(0.100000,-0.100000)"
fill="#000000" stroke="none">
<path d="M6500 9040 c-93 -3 -174 -11 -186 -18 -25 -13 -36 -56 -23 -89 5 -13
25 -33 44 -44 l35 -21 0 -119 0 -118 -97 -30 c-457 -140 -883 -230 -1383 -291
-347 -42 -570 -55 -1163 -70 l-408 -10 -92 96 c-107 113 -161 144 -248 144
-72 0 -115 15 -123 43 -17 66 4 111 58 121 45 9 58 26 54 73 -5 58 -25 64
-208 61 -165 -4 -206 -14 -221 -54 -13 -36 12 -67 65 -85 58 -19 66 -30 66
-91 0 -52 7 -49 -115 -63 -27 -3 -54 -10 -59 -15 -20 -20 -25 -228 -32 -1240
-7 -1067 -4 -1181 32 -1221 11 -12 40 -19 110 -24 l94 -7 0 -68 c0 -77 -6
-100 -26 -100 -53 0 -101 -59 -81 -100 12 -23 21 -30 69 -48 22 -9 28 -19 33
-59 10 -70 14 -81 35 -88 29 -9 33 -37 15 -105 -17 -66 -17 -131 0 -137 38
-12 64 57 65 167 0 43 5 73 15 88 9 12 19 45 22 73 6 53 13 60 76 74 54 11 58
96 6 122 -13 7 -36 13 -51 13 l-28 0 0 78 0 77 86 17 c230 44 305 137 483 598
97 248 173 346 335 425 178 88 190 90 681 89 446 0 579 -7 964 -54 312 -39
397 -65 482 -149 68 -69 98 -140 106 -256 18 -256 -161 -862 -388 -1317 l-69
-138 -263 -1 c-144 0 -270 -4 -280 -7 -15 -6 0 -31 99 -162 208 -275 376 -481
389 -478 8 2 111 86 230 188 119 102 256 213 303 248 112 80 248 148 337 167
82 18 633 39 881 33 142 -3 164 -5 183 -22 27 -24 27 -52 0 -66 -28 -16 -100
-20 -559 -30 -307 -7 -421 -13 -470 -25 -88 -21 -249 -102 -342 -172 -150
-114 -487 -407 -496 -433 -2 -5 45 -75 104 -156 l108 -147 140 149 c188 200
564 581 599 605 l27 20 -10 -27 c-20 -51 -117 -189 -231 -329 -63 -77 -125
-154 -137 -171 l-21 -31 91 -7 c120 -8 1413 -6 1594 2 132 7 144 9 181 35 22
15 50 46 64 70 24 41 24 47 27 312 l3 270 -28 54 c-50 97 -85 109 -320 110
-135 1 -143 2 -158 24 -40 56 -153 469 -179 657 -53 370 -45 752 23 1086 11
53 25 102 30 107 13 13 31 -28 106 -243 71 -204 113 -288 176 -356 68 -72 131
-98 234 -98 93 -1 144 19 219 86 134 117 225 319 279 613 19 105 22 156 22
405 0 190 -4 313 -13 370 -70 438 -247 700 -475 700 -68 0 -111 -13 -177 -52
-113 -68 -179 -185 -266 -472 -25 -83 -52 -161 -60 -173 -22 -35 -58 -29 -90
15 -89 121 -116 151 -182 204 -125 99 -318 178 -404 164 -23 -4 -38 -2 -38 4
0 5 12 10 28 10 47 0 77 22 77 55 0 45 -34 56 -219 67 -88 6 -165 14 -170 19
-6 5 49 9 132 9 l142 0 0 116 0 116 -54 -7 c-63 -7 -196 3 -196 16 0 5 56 9
125 9 l125 0 0 110 0 110 -97 0 c-54 0 -115 3 -135 6 -73 12 -25 24 100 24
140 1 184 14 211 61 18 32 8 74 -22 93 -30 19 -132 24 -327 16z m220 -320
c-20 -13 -187 -13 -195 0 -4 6 32 10 102 10 73 0 103 -3 93 -10z m-352 -241
c4 -118 -2 -147 -36 -155 -31 -8 -62 -32 -62 -48 1 -26 22 -40 77 -51 l58 -12
-90 -7 c-127 -10 -253 -30 -455 -71 -656 -134 -802 -161 -1130 -211 -230 -35
-563 -44 -746 -20 -221 29 -411 100 -539 203 l-59 48 174 2 c437 5 893 33
1230 74 417 51 1073 188 1445 303 61 19 115 33 120 32 6 -2 11 -40 13 -87z
m369 15 c48 -13 8 -24 -85 -24 -103 0 -145 7 -136 21 6 10 186 12 221 3z
m1295 -153 c129 -82 227 -350 258 -707 29 -327 -43 -752 -162 -964 -34 -61
-98 -143 -105 -136 -3 3 18 63 46 135 175 443 198 1002 59 1401 -35 100 -61
147 -123 223 -67 83 -57 101 27 48z m-5384 -1105 c-3 -613 -9 -1120 -13 -1126
-28 -45 -30 30 -33 1125 l-3 1115 27 0 27 0 -5 -1114z m4082 732 l35 -16 -30
-1 c-189 -6 -526 -40 -915 -92 -522 -70 -583 -78 -720 -93 -127 -14 -165 -15
-123 -2 18 5 343 65 603 110 207 36 516 82 645 96 61 6 119 13 130 15 11 2 92
2 180 1 121 -2 169 -7 195 -18z m1074 -129 c34 -27 70 -97 91 -180 13 -48 17
-106 18 -229 0 -231 -21 -316 -94 -388 -32 -31 -62 -41 -73 -23 -3 5 10 42 29
83 81 171 88 446 15 616 -12 28 -30 58 -41 68 -22 20 -25 44 -7 62 17 17 32
15 62 -9z m-4672 -839 c38 -11 108 -79 108 -105 0 -11 -11 -9 -52 10 -64 30
-125 32 -178 5 -57 -29 -70 -53 -70 -131 0 -58 4 -72 26 -99 33 -39 91 -69
150 -77 70 -9 37 -28 -50 -28 -59 1 -80 5 -117 27 -80 47 -113 143 -85 242 36
122 150 188 268 156z m3 -180 c23 -25 13 -64 -21 -87 -53 -34 -113 22 -86 82
9 20 19 25 50 25 26 0 45 -7 57 -20z m3190 -174 c53 -276 -53 -883 -207 -1189
-36 -72 -114 -167 -137 -167 -5 0 8 42 29 94 157 385 290 976 290 1290 0 33 2
57 5 54 3 -3 12 -40 20 -82z m511 -573 c64 -64 63 -262 -1 -287 -80 -30 -158
98 -126 206 24 81 87 121 127 81z"/>
<path d="M3863 6153 c-29 -11 -9 -70 91 -270 230 -457 483 -877 1063 -1761
167 -254 306 -469 309 -477 12 -29 -14 -14 -62 38 -50 52 -143 171 -203 260
-17 26 -38 47 -46 47 -8 0 -65 -53 -127 -117 -347 -364 -430 -433 -517 -433
-19 0 -91 19 -160 41 -225 74 -404 65 -596 -30 -161 -80 -357 -256 -473 -424
-196 -284 -232 -590 -94 -802 155 -240 467 -289 806 -127 127 61 239 146 354
267 151 159 229 287 347 565 137 322 224 457 343 527 34 20 254 113 269 113
10 0 0 -69 -18 -123 -25 -76 -24 -74 -222 -377 -285 -436 -363 -551 -517 -765
-273 -376 -335 -480 -365 -606 -27 -117 -15 -250 33 -347 33 -67 136 -165 222
-212 63 -34 68 -35 196 -38 110 -3 144 0 208 17 374 103 733 476 883 920 36
105 37 108 37 276 l1 170 -32 62 c-52 102 -86 145 -202 253 -76 71 -114 113
-122 137 -15 47 -6 130 20 181 20 40 126 152 189 200 l33 25 44 -39 c24 -21
246 -248 493 -504 638 -662 983 -990 1257 -1195 141 -106 217 -154 255 -161
26 -6 30 -4 30 16 0 31 -77 172 -161 295 -162 239 -328 422 -1074 1185 -322
330 -473 493 -512 552 -32 47 -39 83 -53 243 -6 72 -16 148 -21 171 -12 48
-74 131 -589 791 -411 527 -497 633 -689 852 -270 308 -489 532 -581 594 -26
18 -28 18 -47 10z m1589 -2049 c38 -27 79 -75 91 -107 5 -13 -7 -33 -46 -74
-28 -30 -61 -59 -72 -63 -49 -18 -125 68 -133 150 -4 43 -2 48 37 83 49 44 72
46 123 11z m-1331 -831 c82 -44 135 -128 146 -233 17 -166 -144 -460 -335
-611 -88 -68 -251 -152 -330 -168 -68 -14 -176 -14 -226 0 -55 15 -118 78
-151 151 -25 56 -27 69 -23 147 15 249 240 555 502 681 157 76 316 88 417 33z
m1126 -654 c57 -27 118 -98 140 -162 24 -71 22 -207 -6 -312 -26 -99 -124
-298 -190 -386 -175 -231 -380 -386 -576 -434 -197 -49 -345 60 -345 254 0
135 63 245 423 731 174 235 248 310 331 331 50 13 176 0 223 -22z"/>
<path d="M2255 5161 c-86 -7 -126 -25 -177 -78 -53 -56 -58 -82 -58 -335 0
-128 4 -248 10 -267 16 -57 52 -99 115 -133 l60 -33 1268 -3 c697 -2 1267 -1
1267 3 0 3 -40 65 -88 138 -49 72 -153 236 -232 362 -78 127 -162 258 -187
293 l-44 62 -927 -2 c-510 0 -963 -4 -1007 -7z m1578 -160 c14 -14 -88 -20
-553 -32 -565 -14 -1084 -10 -1102 9 -11 11 -9 16 7 29 18 14 108 15 830 9
445 -3 813 -10 818 -15z"/>
</g>
</svg>
